<?xml version="1.0" standalone="no"?>
<!DOCTYPE svg PUBLIC "-//W3C//DTD SVG 20010904//EN"
 "http://www.w3.org/TR/2001/REC-SVG-20010904/DTD/svg10.dtd">
<svg version="1.0" xmlns="http://www.w3.org/2000/svg"
 width="256.000000pt" height="256.000000pt" viewBox="0 0 256.000000 256.000000"
 preserveAspectRatio="xMidYMid meet">
<metadata>
Created by potrace 1.14, written by Peter Selinger 2001-2017
</metadata>
<g transform="translate(0.000000,256.000000) scale(0.100000,-0.100000)"
fill="#000000" stroke="none">
<path d="M439 2373 c-99 -19 -103 -23 -128 -101 -40 -127 -33 -279 19 -394 11
-27 23 -48 26 -48 9 0 29 24 54 65 22 36 25 51 25 150 0 123 12 155 62 172 31
10 96 10 161 -1 38 -6 49 -3 101 29 34 21 58 42 55 49 -5 13 -81 53 -129 68
-81 24 -165 28 -246 11z"/>
<path d="M1970 2379 c-30 -3 -74 -12 -98 -18 -47 -13 -125 -53 -129 -67 -2 -5
24 -27 58 -48 57 -37 63 -39 104 -29 57 13 134 9 171 -8 37 -18 52 -80 47
-194 -3 -79 -3 -81 36 -137 45 -67 47 -66 86 42 33 91 38 218 11 318 -33 124
-34 125 -211 146 -11 1 -45 -1 -75 -5z"/>
<path d="M1503 2222 c-32 -2 -53 -8 -54 -15 -1 -7 -2 -145 -3 -307 l-1 -295
-50 0 -50 0 -2 280 c-1 154 -2 292 -3 308 0 27 0 27 -70 27 -38 0 -71 -3 -71
-7 -1 -5 -2 -143 -3 -308 l-1 -300 -50 0 -50 0 -3 308 -2 307 -85 0 -84 0 -92
-62 c-165 -112 -288 -250 -380 -428 l-33 -65 -3 -305 c-1 -168 1 -317 3 -331
4 -23 33 -41 197 -129 106 -57 195 -108 199 -114 4 -5 7 -32 6 -58 0 -71 41
-127 125 -170 73 -37 165 -19 224 44 22 24 62 104 63 125 0 11 -53 43 -190
116 l-45 24 -5 159 -5 159 -25 3 c-44 5 -144 44 -186 73 -82 56 -140 151 -151
246 -10 89 -9 138 2 137 6 -1 36 -4 69 -8 162 -17 295 -107 357 -240 35 -77
38 -97 39 -292 1 -88 5 -165 8 -171 10 -14 161 -93 179 -93 15 0 155 72 180
92 8 6 13 71 15 206 3 189 4 199 30 252 74 154 204 232 423 253 18 2 20 -4 18
-65 -4 -202 -135 -358 -323 -385 -19 -3 -39 -9 -44 -14 -5 -4 -9 -70 -8 -146
1 -100 -3 -144 -12 -158 -8 -12 -61 -46 -120 -75 -58 -30 -108 -60 -110 -67
-8 -21 33 -101 70 -137 42 -40 105 -65 154 -60 64 8 177 95 182 142 0 9 2 26
3 37 1 11 3 32 4 47 1 23 20 36 192 128 104 56 196 109 204 116 10 11 13 77
12 333 l-1 320 -38 76 c-58 117 -113 192 -207 285 -77 75 -181 155 -249 189
-26 14 -72 17 -149 13z"/>
<path d="M725 1521 c-9 -16 26 -96 58 -131 18 -20 48 -45 67 -57 40 -24 117
-49 126 -40 10 10 -36 101 -69 135 -18 18 -46 42 -63 53 -43 26 -112 50 -119
40z"/>
<path d="M1776 1510 c-26 -10 -63 -29 -82 -42 -40 -27 -100 -110 -110 -152 -7
-29 -7 -29 32 -22 104 20 193 105 218 209 8 32 6 32 -58 7z"/>
<path d="M2248 1175 l-3 -228 -188 -102 c-103 -57 -194 -108 -202 -115 -12
-10 -15 -37 -15 -121 0 -60 4 -109 8 -109 8 0 470 254 521 287 27 17 27 14
-19 203 -17 69 -44 188 -61 265 -16 76 -32 141 -34 143 -3 3 -6 -98 -7 -223z"/>
<path d="M287 1320 c-9 -41 -19 -86 -22 -100 -3 -14 -26 -109 -51 -213 -25
-103 -44 -193 -41 -201 3 -7 36 -30 74 -51 37 -21 93 -52 123 -68 30 -17 118
-66 195 -109 77 -43 143 -78 146 -78 8 0 7 227 -1 232 -3 2 -39 21 -80 42 -41
22 -91 49 -110 61 -19 12 -66 38 -105 58 -38 21 -77 41 -85 47 -12 8 -16 49
-20 232 l-5 223 -18 -75z"/>
<path d="M1237 534 c-58 -67 -142 -103 -227 -97 -54 3 -91 17 -147 54 l-43 28
0 -112 c0 -122 9 -152 57 -191 46 -37 89 -41 419 -40 269 1 324 3 349 16 38
20 70 56 80 88 9 28 14 198 8 217 -3 8 -16 5 -42 -12 -77 -48 -165 -60 -251
-33 -46 14 -122 70 -140 102 -7 14 -16 26 -19 26 -3 -1 -23 -21 -44 -46z"/>
</g>
</svg>
